RobotoSlab_Thin.ufo
<glyph name="exclam" format="1">
  <advance width="437"/>
  <unicode hex="0021"/>
  <outline>
    <contour>
      <point x="217" y="1456" type="line"/>
      <point x="163" y="1456" type="line"/>
      <point x="163" y="478" type="line"/>
      <point x="217" y="478" type="line"/>
    </contour>
    <contour>
      <point x="238" y="134" type="line"/>
      <point x="143" y="134" type="line"/>
      <point x="143" y="0" type="line"/>
      <point x="238" y="0" type="line"/>
    </contour>
  </outline>
</glyph>
<glyph name="dollar" format="1">
  <advance width="1086"/>
  <unicode hex="0024"/>
  <outline>
    <contour>
      <point x="565" y="1663" type="line"/>
      <point x="510" y="1663" type="line"/>
      <point x="510" y="1437" type="line"/>
      <point x="565" y="1437" type="line"/>
    </contour>
    <contour>
      <point x="576" y="19" type="line"/>
      <point x="521" y="19" type="line"/>
      <point x="521" y="-208" type="line"/>
      <point x="576" y="-208" type="line"/>
    </contour>
    <contour>
      <point x="903" y="344" type="curve" smooth="yes"/>
      <point x="903" y="183"/>
      <point x="769" y="32"/>
      <point x="542" y="32" type="curve" smooth="yes"/>
      <point x="352" y="32"/>
      <point x="131" y="120"/>
      <point x="131" y="409" type="curve"/>
      <point x="77" y="409" type="line"/>
      <point x="77" y="86"/>
      <point x="314" y="-21"/>
      <point x="542" y="-21" type="curve" smooth="yes"/>
      <point x="790" y="-21"/>
      <point x="957" y="120"/>
      <point x="957" y="346" type="curve" smooth="yes"/>
      <point x="957" y="586"/>
      <point x="794" y="670"/>
      <point x="549" y="754" type="curve" smooth="yes"/>
      <point x="238" y="857"/>
      <point x="178" y="948"/>
      <point x="178" y="1112" type="curve" smooth="yes"/>
      <point x="178" y="1270"/>
      <point x="290" y="1424"/>
      <point x="535" y="1424" type="curve" smooth="yes"/>
      <point x="769" y="1424"/>
      <point x="895" y="1262"/>
      <point x="895" y="1047" type="curve"/>
      <point x="949" y="1047" type="line"/>
      <point x="949" y="1324"/>
      <point x="793" y="1477"/>
      <point x="535" y="1477" type="curve" smooth="yes"/>
      <point x="285" y="1477"/>
      <point x="124" y="1331"/>
      <point x="124" y="1110" type="curve" smooth="yes"/>
      <point x="124" y="870"/>
      <point x="279" y="787"/>
      <point x="532" y="702" type="curve" smooth="yes"/>
      <point x="816" y="600"/>
      <point x="903" y="518"/>
    </contour>
  </outline>
</glyph>
<glyph name="three" format="1">
  <advance width="1098"/>
  <unicode hex="0033"/>
  <outline>
    <contour>
      <point x="383" y="771" type="line"/>
      <point x="383" y="718" type="line"/>
      <point x="498" y="718" type="line" smooth="yes"/>
      <point x="765" y="718"/>
      <point x="941" y="882"/>
      <point x="941" y="1082" type="curve" smooth="yes"/>
      <point x="941" y="1327"/>
      <point x="780" y="1477"/>
      <point x="530" y="1477" type="curve" smooth="yes"/>
      <point x="296" y="1477"/>
      <point x="100" y="1324"/>
      <point x="100" y="1075" type="curve"/>
      <point x="154" y="1075" type="line"/>
      <point x="154" y="1291"/>
      <point x="320" y="1423"/>
      <point x="530" y="1423" type="curve" smooth="yes"/>
      <point x="778" y="1423"/>
      <point x="887" y="1269"/>
      <point x="887" y="1086" type="curve" smooth="yes"/>
      <point x="887" y="918"/>
      <point x="749" y="771"/>
      <point x="494" y="771" type="curve" smooth="yes"/>
    </contour>
    <contour>
      <point x="383" y="715" type="line"/>
      <point x="494" y="715" type="line" smooth="yes"/>
      <point x="742" y="715"/>
      <point x="919" y="620"/>
      <point x="919" y="382" type="curve" smooth="yes"/>
      <point x="919" y="165"/>
      <point x="781" y="33"/>
      <point x="539" y="33" type="curve" smooth="yes"/>
      <point x="302" y="33"/>
      <point x="123" y="189"/>
      <point x="123" y="405" type="curve"/>
      <point x="69" y="405" type="line"/>
      <point x="69" y="111"/>
      <point x="320" y="-21"/>
      <point x="539" y="-21" type="curve" smooth="yes"/>
      <point x="790" y="-21"/>
      <point x="973" y="128"/>
      <point x="973" y="386" type="curve" smooth="yes"/>
      <point x="973" y="629"/>
      <point x="790" y="764"/>
      <point x="498" y="764" type="curve" smooth="yes"/>
      <point x="383" y="764" type="line"/>
    </contour>
  </outline>
</glyph>
<glyph name="five" format="1">
  <advance width="1061"/>
  <unicode hex="0035"/>
  <outline>
    <contour>
      <point x="151" y="646" type="line"/>
      <point x="203" y="783"/>
      <point x="316" y="858"/>
      <point x="534" y="858" type="curve" smooth="yes"/>
      <point x="755" y="858"/>
      <point x="878" y="705"/>
      <point x="878" y="462" type="curve" smooth="yes"/>
      <point x="878" y="182"/>
      <point x="768" y="33"/>
      <point x="503" y="33" type="curve" smooth="yes"/>
      <point x="291" y="33"/>
      <point x="146" y="147"/>
      <point x="146" y="383" type="curve"/>
      <point x="91" y="383" type="line"/>
      <point x="91" y="100"/>
      <point x="286" y="-21"/>
      <point x="503" y="-21" type="curve" smooth="yes"/>
      <point x="811" y="-21"/>
      <point x="933" y="185"/>
      <point x="933" y="464" type="curve" smooth="yes"/>
      <point x="933" y="748"/>
      <point x="762" y="923"/>
      <point x="533" y="916" type="curve" smooth="yes"/>
      <point x="322" y="911"/>
      <point x="247" y="856"/>
      <point x="176" y="785" type="curve"/>
      <point x="237" y="1403" type="line"/>
      <point x="888" y="1403" type="line"/>
      <point x="888" y="1456" type="line"/>
      <point x="188" y="1456" type="line"/>
      <point x="110" y="662" type="line"/>
    </contour>
    <contour>
      <point x="888" y="1265" type="line"/>
      <point x="888" y="1456" type="line"/>
      <point x="834" y="1456" type="line"/>
      <point x="834" y="1265" type="line"/>
    </contour>
  </outline>
</glyph>
<glyph name="semicolon" format="1">
  <advance width="364"/>
  <unicode hex="003B"/>
  <outline>
    <contour>
      <point x="210" y="1082" type="line"/>
      <point x="124" y="1082" type="line"/>
      <point x="124" y="952" type="line"/>
      <point x="210" y="952" type="line"/>
    </contour>
    <contour>
      <point x="218" y="159" type="line"/>
      <point x="164" y="159" type="line"/>
      <point x="164" y="25" type="line" smooth="yes"/>
      <point x="164" y="-78"/>
      <point x="135" y="-145"/>
      <point x="75" y="-223" type="curve"/>
      <point x="112" y="-255" type="line"/>
      <point x="175" y="-188"/>
      <point x="218" y="-96"/>
      <point x="218" y="27" type="curve" smooth="yes"/>
    </contour>
  </outline>
</glyph>
<glyph name="at" format="1">
  <advance width="1799"/>
  <unicode hex="0040"/>
  <outline>
    <contour>
      <point x="1724" y="523" type="curve" smooth="yes"/>
      <point x="1747" y="1067"/>
      <point x="1509" y="1411"/>
      <point x="958" y="1411" type="curve" smooth="yes"/>
      <point x="454" y="1411"/>
      <point x="111" y="1049"/>
      <point x="86" y="478" type="curve" smooth="yes"/>
      <point x="62" y="-96"/>
      <point x="356" y="-453"/>
      <point x="863" y="-453" type="curve" smooth="yes"/>
      <point x="980" y="-453"/>
      <point x="1136" y="-421"/>
      <point x="1221" y="-364" type="curve"/>
      <point x="1197" y="-318" type="line"/>
      <point x="1115" y="-366"/>
      <point x="984" y="-398"/>
      <point x="867" y="-398" type="curve" smooth="yes"/>
      <point x="380" y="-398"/>
      <point x="116" y="-17"/>
      <point x="141" y="478" type="curve" smooth="yes"/>
      <point x="169" y="1017"/>
      <point x="514" y="1354"/>
      <point x="954" y="1354" type="curve" smooth="yes"/>
      <point x="1483" y="1354"/>
      <point x="1694" y="1033"/>
      <point x="1667" y="523" type="curve" smooth="yes"/>
      <point x="1653" y="243"/>
      <point x="1536" y="34"/>
      <point x="1317" y="34" type="curve" smooth="yes"/>
      <point x="1267" y="34"/>
      <point x="1157" y="61"/>
      <point x="1173" y="293" type="curve" smooth="yes"/>
      <point x="1222" y="858" type="line"/>
      <point x="1167" y="858" type="line"/>
      <point x="1118" y="293" type="line" smooth="yes"/>
      <point x="1106" y="101"/>
      <point x="1183" y="-21"/>
      <point x="1314" y="-21" type="curve" smooth="yes"/>
      <point x="1592" y="-21"/>
      <point x="1713" y="267"/>
    </contour>
    <contour>
      <point x="589" y="416" type="curve" smooth="yes"/>
      <point x="626" y="760"/>
      <point x="794" y="913"/>
      <point x="969" y="913" type="curve" smooth="yes"/>
      <point x="1063" y="913"/>
      <point x="1128" y="878"/>
      <point x="1171" y="824" type="curve"/>
      <point x="1222" y="858" type="line"/>
      <point x="1157" y="916"/>
      <point x="1097" y="968"/>
      <point x="972" y="968" type="curve" smooth="yes"/>
      <point x="745" y="968"/>
      <point x="566" y="753"/>
      <point x="535" y="416" type="curve" smooth="yes"/>
      <point x="511" y="154"/>
      <point x="604" y="-21"/>
      <point x="786" y="-21" type="curve" smooth="yes"/>
      <point x="970" y="-21"/>
      <point x="1099" y="102"/>
      <point x="1166" y="336" type="curve"/>
      <point x="1135" y="386" type="line"/>
      <point x="1052" y="91"/>
      <point x="913" y="33"/>
      <point x="784" y="33" type="curve" smooth="yes"/>
      <point x="628" y="33"/>
      <point x="565" y="204"/>
    </contour>
  </outline>
</glyph>
<glyph name="I" format="1">
  <advance width="598"/>
  <unicode hex="0049"/>
  <outline>
    <contour>
      <point x="326" y="1456" type="line"/>
      <point x="272" y="1456" type="line"/>
      <point x="272" y="0" type="line"/>
      <point x="326" y="0" type="line"/>
    </contour>
    <contour>
      <point x="272" y="0" type="line"/>
      <point x="272" y="54" type="line"/>
      <point x="109" y="54" type="line"/>
      <point x="109" y="0" type="line"/>
    </contour>
    <contour>
      <point x="326" y="0" type="line"/>
      <point x="489" y="0" type="line"/>
      <point x="489" y="54" type="line"/>
      <point x="326" y="54" type="line"/>
    </contour>
    <contour>
      <point x="326" y="1456" type="line"/>
      <point x="326" y="1402" type="line"/>
      <point x="489" y="1402" type="line"/>
      <point x="489" y="1456" type="line"/>
    </contour>
    <contour>
      <point x="272" y="1456" type="line"/>
      <point x="109" y="1456" type="line"/>
      <point x="109" y="1402" type="line"/>
      <point x="272" y="1402" type="line"/>
    </contour>
  </outline>
</glyph>
<glyph name="J" format="1">
  <advance width="1137"/>
  <unicode hex="004A"/>
  <outline>
    <contour>
      <point x="826" y="422" type="line" smooth="yes"/>
      <point x="826" y="179"/>
      <point x="671" y="33"/>
      <point x="471" y="33" type="curve" smooth="yes"/>
      <point x="228" y="33"/>
      <point x="94" y="165"/>
      <point x="94" y="401" type="curve"/>
      <point x="40" y="401" type="line"/>
      <point x="40" y="116"/>
      <point x="214" y="-21"/>
      <point x="471" y="-21" type="curve" smooth="yes"/>
      <point x="708" y="-21"/>
      <point x="880" y="148"/>
      <point x="880" y="422" type="curve" smooth="yes"/>
      <point x="880" y="1456" type="line"/>
      <point x="826" y="1456" type="line"/>
    </contour>
    <contour>
      <point x="880" y="1456" type="line"/>
      <point x="880" y="1402" type="line"/>
      <point x="1043" y="1402" type="line"/>
      <point x="1043" y="1456" type="line"/>
    </contour>
    <contour>
      <point x="826" y="1456" type="line"/>
      <point x="663" y="1456" type="line"/>
      <point x="663" y="1402" type="line"/>
      <point x="826" y="1402" type="line"/>
    </contour>
  </outline>
</glyph>
<glyph name="M" format="1">
  <advance width="1824"/>
  <unicode hex="004D"/>
  <outline>
    <contour>
      <point x="250" y="1456" type="line"/>
      <point x="889" y="0" type="line"/>
      <point x="932" y="0" type="line"/>
      <point x="1571" y="1456" type="line"/>
      <point x="1511" y="1456" type="line"/>
      <point x="910" y="79" type="line"/>
      <point x="311" y="1456" type="line"/>
    </contour>
    <contour>
      <point x="234" y="1456" type="line"/>
      <point x="234" y="0" type="line"/>
      <point x="288" y="0" type="line"/>
      <point x="288" y="703" type="line"/>
      <point x="288" y="1456" type="line"/>
    </contour>
    <contour>
      <point x="1536" y="1456" type="line"/>
      <point x="1536" y="703" type="line"/>
      <point x="1536" y="0" type="line"/>
      <point x="1590" y="0" type="line"/>
      <point x="1590" y="1456" type="line"/>
    </contour>
    <contour>
      <point x="1536" y="0" type="line"/>
      <point x="1536" y="54" type="line"/>
      <point x="1373" y="54" type="line"/>
      <point x="1373" y="0" type="line"/>
    </contour>
    <contour>
      <point x="1590" y="0" type="line"/>
      <point x="1753" y="0" type="line"/>
      <point x="1753" y="54" type="line"/>
      <point x="1590" y="54" type="line"/>
    </contour>
    <contour>
      <point x="1590" y="1456" type="line"/>
      <point x="1590" y="1402" type="line"/>
      <point x="1753" y="1402" type="line"/>
      <point x="1753" y="1456" type="line"/>
    </contour>
    <contour>
      <point x="288" y="0" type="line"/>
      <point x="451" y="0" type="line"/>
      <point x="451" y="54" type="line"/>
      <point x="288" y="54" type="line"/>
    </contour>
    <contour>
      <point x="234" y="0" type="line"/>
      <point x="234" y="54" type="line"/>
      <point x="71" y="54" type="line"/>
      <point x="71" y="0" type="line"/>
    </contour>
    <contour>
      <point x="234" y="1456" type="line"/>
      <point x="71" y="1456" type="line"/>
      <point x="71" y="1402" type="line"/>
      <point x="234" y="1402" type="line"/>
    </contour>
  </outline>
</glyph>
<glyph name="S" format="1">
  <advance width="1198"/>
  <unicode hex="0053"/>
  <outline>
    <contour>
      <point x="1077" y="1251" type="line"/>
      <point x="981" y="1405"/>
      <point x="812" y="1477"/>
      <point x="597" y="1477" type="curve" smooth="yes"/>
      <point x="322" y="1477"/>
      <point x="114" y="1342"/>
      <point x="114" y="1120" type="curve" smooth="yes"/>
      <point x="114" y="886"/>
      <point x="297" y="799"/>
      <point x="594" y="718" type="curve" smooth="yes"/>
      <point x="924" y="628"/>
      <point x="1043" y="533"/>
      <point x="1043" y="349" type="curve" smooth="yes"/>
      <point x="1043" y="162"/>
      <point x="860" y="33"/>
      <point x="604" y="33" type="curve" smooth="yes"/>
      <point x="450" y="33"/>
      <point x="267" y="82"/>
      <point x="154" y="227" type="curve"/>
      <point x="154" y="444" type="line"/>
      <point x="100" y="444" type="line"/>
      <point x="100" y="204" type="line"/>
      <point x="227" y="41"/>
      <point x="425" y="-21"/>
      <point x="604" y="-21" type="curve" smooth="yes"/>
      <point x="876" y="-21"/>
      <point x="1098" y="113"/>
      <point x="1098" y="351" type="curve" smooth="yes"/>
      <point x="1098" y="596"/>
      <point x="896" y="695"/>
      <point x="609" y="770" type="curve" smooth="yes"/>
      <point x="261" y="860"/>
      <point x="168" y="967"/>
      <point x="168" y="1122" type="curve" smooth="yes"/>
      <point x="168" y="1280"/>
      <point x="322" y="1423"/>
      <point x="597" y="1423" type="curve" smooth="yes"/>
      <point x="794" y="1423"/>
      <point x="938" y="1355"/>
      <point x="1023" y="1226" type="curve"/>
      <point x="1023" y="1022" type="line"/>
      <point x="1077" y="1022" type="line"/>
    </contour>
  </outline>
</glyph>
<glyph name="U" format="1">
  <advance width="1441"/>
  <unicode hex="0055"/>
  <outline>
    <contour>
      <point x="1164" y="1456" type="line"/>
      <point x="1164" y="469" type="line" smooth="yes"/>
      <point x="1164" y="188"/>
      <point x="973" y="33"/>
      <point x="721" y="33" type="curve" smooth="yes"/>
      <point x="469" y="33"/>
      <point x="277" y="188"/>
      <point x="277" y="469" type="curve" smooth="yes"/>
      <point x="277" y="1456" type="line"/>
      <point x="223" y="1456" type="line"/>
      <point x="223" y="469" type="line" smooth="yes"/>
      <point x="223" y="142"/>
      <point x="437" y="-21"/>
      <point x="721" y="-21" type="curve" smooth="yes"/>
      <point x="1005" y="-21"/>
      <point x="1218" y="142"/>
      <point x="1218" y="469" type="curve" smooth="yes"/>
      <point x="1218" y="1456" type="line"/>
    </contour>
    <contour>
      <point x="277" y="1456" type="line"/>
      <point x="277" y="1402" type="line"/>
      <point x="440" y="1402" type="line"/>
      <point x="440" y="1456" type="line"/>
    </contour>
    <contour>
      <point x="223" y="1456" type="line"/>
      <point x="60" y="1456" type="line"/>
      <point x="60" y="1402" type="line"/>
      <point x="223" y="1402" type="line"/>
    </contour>
    <contour>
      <point x="1164" y="1456" type="line"/>
      <point x="1001" y="1456" type="line"/>
      <point x="1001" y="1402" type="line"/>
      <point x="1164" y="1402" type="line"/>
    </contour>
    <contour>
      <point x="1218" y="1456" type="line"/>
      <point x="1218" y="1402" type="line"/>
      <point x="1381" y="1402" type="line"/>
      <point x="1381" y="1456" type="line"/>
    </contour>
  </outline>
</glyph>
<glyph name="bracketright" format="1">
  <advance width="505"/>
  <unicode hex="005D"/>
  <outline>
    <contour>
      <point x="23" y="1610" type="line"/>
      <point x="251" y="1610" type="line"/>
      <point x="251" y="-258" type="line"/>
      <point x="23" y="-258" type="line"/>
      <point x="23" y="-312" type="line"/>
      <point x="306" y="-312" type="line"/>
      <point x="306" y="1664" type="line"/>
      <point x="23" y="1664" type="line"/>
    </contour>
  </outline>
</glyph>
<glyph name="asciicircum" format="1">
  <advance width="828"/>
  <unicode hex="005E"/>
  <outline>
    <contour>
      <point x="349" y="1272" type="line"/>
      <point x="418" y="1456" type="line"/>
      <point x="370" y="1456" type="line"/>
      <point x="71" y="729" type="line"/>
      <point x="130" y="729" type="line"/>
    </contour>
    <contour>
      <point x="660" y="729" type="line"/>
      <point x="721" y="729" type="line"/>
      <point x="422" y="1456" type="line"/>
      <point x="373" y="1456" type="line"/>
      <point x="438" y="1272" type="line"/>
    </contour>
  </outline>
</glyph>
<glyph name="g" format="1">
  <advance width="1140"/>
  <unicode hex="0067"/>
  <outline>
    <contour>
      <point x="895" y="1082" type="line"/>
      <point x="886" y="844" type="line"/>
      <point x="886" y="14" type="line" smooth="yes"/>
      <point x="886" y="-229"/>
      <point x="765" y="-384"/>
      <point x="530" y="-384" type="curve" smooth="yes"/>
      <point x="410" y="-384"/>
      <point x="328" y="-363"/>
      <point x="234" y="-321" type="curve"/>
      <point x="218" y="-375" type="line"/>
      <point x="307" y="-416"/>
      <point x="432" y="-437"/>
      <point x="532" y="-437" type="curve" smooth="yes"/>
      <point x="787" y="-437"/>
      <point x="941" y="-263"/>
      <point x="941" y="14" type="curve" smooth="yes"/>
      <point x="941" y="1082" type="line"/>
    </contour>
    <contour>
      <point x="112" y="521" type="line" smooth="yes"/>
      <point x="112" y="191"/>
      <point x="262" y="-21"/>
      <point x="518" y="-21" type="curve" smooth="yes"/>
      <point x="762" y="-21"/>
      <point x="903" y="133"/>
      <point x="937" y="304" type="curve"/>
      <point x="937" y="745" type="line"/>
      <point x="890" y="948"/>
      <point x="755" y="1102"/>
      <point x="520" y="1102" type="curve" smooth="yes"/>
      <point x="263" y="1102"/>
      <point x="112" y="883"/>
      <point x="112" y="542" type="curve" smooth="yes"/>
    </contour>
    <contour>
      <point x="167" y="542" type="line" smooth="yes"/>
      <point x="167" y="829"/>
      <point x="281" y="1048"/>
      <point x="519" y="1048" type="curve" smooth="yes"/>
      <point x="791" y="1048"/>
      <point x="872" y="843"/>
      <point x="901" y="709" type="curve"/>
      <point x="901" y="329" type="line"/>
      <point x="865" y="166"/>
      <point x="744" y="33"/>
      <point x="517" y="33" type="curve" smooth="yes"/>
      <point x="281" y="33"/>
      <point x="167" y="233"/>
      <point x="167" y="521" type="curve" smooth="yes"/>
    </contour>
  </outline>
</glyph>
<glyph name="k" format="1">
  <advance width="1152"/>
  <unicode hex="006B"/>
  <outline>
    <contour>
      <point x="279" y="1560" type="line"/>
      <point x="225" y="1560" type="line"/>
      <point x="225" y="0" type="line"/>
      <point x="279" y="0" type="line"/>
    </contour>
    <contour>
      <point x="936" y="0" type="line"/>
      <point x="936" y="54" type="line"/>
      <point x="753" y="54" type="line"/>
      <point x="753" y="0" type="line"/>
    </contour>
    <contour>
      <point x="898" y="1082" type="line"/>
      <point x="715" y="1082" type="line"/>
      <point x="715" y="1028" type="line"/>
      <point x="898" y="1028" type="line"/>
    </contour>
    <contour>
      <point x="225" y="0" type="line"/>
      <point x="225" y="54" type="line"/>
      <point x="62" y="54" type="line"/>
      <point x="62" y="0" type="line"/>
    </contour>
    <contour>
      <point x="279" y="0" type="line"/>
      <point x="442" y="0" type="line"/>
      <point x="442" y="54" type="line"/>
      <point x="279" y="54" type="line"/>
    </contour>
    <contour>
      <point x="225" y="1560" type="line"/>
      <point x="62" y="1560" type="line"/>
      <point x="62" y="1506" type="line"/>
      <point x="225" y="1506" type="line"/>
    </contour>
    <contour>
      <point x="936" y="0" type="line"/>
      <point x="1073" y="0" type="line"/>
      <point x="1073" y="54" type="line"/>
      <point x="956" y="54" type="line"/>
      <point x="439" y="620" type="line"/>
      <point x="404" y="578" type="line"/>
    </contour>
    <contour>
      <point x="1036" y="1082" type="line"/>
      <point x="898" y="1082" type="line"/>
      <point x="406" y="607" type="line"/>
      <point x="247" y="607" type="line"/>
      <point x="269" y="553" type="line"/>
      <point x="430" y="553" type="line"/>
      <point x="914" y="1028" type="line"/>
      <point x="1036" y="1028" type="line"/>
    </contour>
  </outline>
</glyph>
<glyph name="m" format="1">
  <advance width="1980"/>
  <unicode hex="006D"/>
  <outline>
    <contour>
      <point x="307" y="850" type="line"/>
      <point x="299" y="1082" type="line"/>
      <point x="252" y="1082" type="line"/>
      <point x="252" y="0" type="line"/>
      <point x="307" y="0" type="line"/>
    </contour>
    <contour>
      <point x="297" y="554" type="line"/>
      <point x="297" y="785"/>
      <point x="372" y="1048"/>
      <point x="673" y="1048" type="curve" smooth="yes"/>
      <point x="841" y="1048"/>
      <point x="982" y="959"/>
      <point x="982" y="619" type="curve" smooth="yes"/>
      <point x="982" y="0" type="line"/>
      <point x="1037" y="0" type="line"/>
      <point x="1037" y="615" type="line" smooth="yes"/>
      <point x="1037" y="960"/>
      <point x="905" y="1102"/>
      <point x="671" y="1102" type="curve" smooth="yes"/>
      <point x="390" y="1102"/>
      <point x="252" y="875"/>
      <point x="252" y="554" type="curve"/>
    </contour>
    <contour>
      <point x="1027" y="552" type="line"/>
      <point x="1027" y="785"/>
      <point x="1104" y="1049"/>
      <point x="1405" y="1049" type="curve" smooth="yes"/>
      <point x="1571" y="1049"/>
      <point x="1713" y="959"/>
      <point x="1713" y="620" type="curve" smooth="yes"/>
      <point x="1713" y="1" type="line"/>
      <point x="1768" y="1" type="line"/>
      <point x="1768" y="618" type="line" smooth="yes"/>
      <point x="1768" y="962"/>
      <point x="1636" y="1103"/>
      <point x="1403" y="1103" type="curve" smooth="yes"/>
      <point x="1121" y="1103"/>
      <point x="983" y="877"/>
      <point x="983" y="554" type="curve"/>
    </contour>
    <contour>
      <point x="1713" y="1" type="line"/>
      <point x="1713" y="55" type="line"/>
      <point x="1550" y="55" type="line"/>
      <point x="1550" y="1" type="line"/>
    </contour>
    <contour>
      <point x="1768" y="1" type="line"/>
      <point x="1931" y="1" type="line"/>
      <point x="1931" y="55" type="line"/>
      <point x="1768" y="55" type="line"/>
    </contour>
    <contour>
      <point x="1037" y="0" type="line"/>
      <point x="1200" y="0" type="line"/>
      <point x="1200" y="54" type="line"/>
      <point x="1037" y="54" type="line"/>
    </contour>
    <contour>
      <point x="982" y="0" type="line"/>
      <point x="982" y="54" type="line"/>
      <point x="819" y="54" type="line"/>
      <point x="819" y="0" type="line"/>
    </contour>
    <contour>
      <point x="307" y="0" type="line"/>
      <point x="470" y="0" type="line"/>
      <point x="470" y="54" type="line"/>
      <point x="307" y="54" type="line"/>
    </contour>
    <contour>
      <point x="252" y="1082" type="line"/>
      <point x="89" y="1082" type="line"/>
      <point x="89" y="1028" type="line"/>
      <point x="252" y="1028" type="line"/>
    </contour>
    <contour>
      <point x="252" y="0" type="line"/>
      <point x="252" y="54" type="line"/>
      <point x="89" y="54" type="line"/>
      <point x="89" y="0" type="line"/>
    </contour>
  </outline>
</glyph>
<glyph name="sterling" format="1">
  <advance width="1151"/>
  <unicode hex="00A3"/>
  <outline>
    <contour>
      <point x="1044" y="0" type="line"/>
      <point x="1043" y="54" type="line"/>
      <point x="132" y="54" type="line"/>
      <point x="132" y="0" type="line"/>
    </contour>
    <contour>
      <point x="841" y="667" type="line"/>
      <point x="841" y="721" type="line"/>
      <point x="68" y="721" type="line"/>
      <point x="68" y="667" type="line"/>
    </contour>
    <contour>
      <point x="352" y="1040" type="line" smooth="yes"/>
      <point x="352" y="1288"/>
      <point x="477" y="1423"/>
      <point x="669" y="1423" type="curve" smooth="yes"/>
      <point x="844" y="1423"/>
      <point x="954" y="1335"/>
      <point x="954" y="1090" type="curve"/>
      <point x="1008" y="1090" type="line"/>
      <point x="1008" y="1321"/>
      <point x="913" y="1477"/>
      <point x="669" y="1477" type="curve" smooth="yes"/>
      <point x="447" y="1477"/>
      <point x="298" y="1316"/>
      <point x="298" y="1040" type="curve" smooth="yes"/>
      <point x="319" y="466" type="line" smooth="yes"/>
      <point x="319" y="321"/>
      <point x="274" y="79"/>
      <point x="142" y="54" type="curve"/>
      <point x="202" y="25" type="line"/>
      <point x="314" y="108"/>
      <point x="373" y="286"/>
      <point x="373" y="466" type="curve" smooth="yes"/>
    </contour>
    <contour>
      <point x="1044" y="0" type="line"/>
      <point x="1044" y="293" type="line"/>
      <point x="990" y="293" type="line"/>
      <point x="990" y="0" type="line"/>
    </contour>
  </outline>
</glyph>
<glyph name="currency" format="1">
  <advance width="1461"/>
  <unicode hex="00A4"/>
  <outline>
    <contour>
      <point x="184" y="608" type="curve" smooth="yes"/>
      <point x="184" y="925"/>
      <point x="429" y="1181"/>
      <point x="725" y="1181" type="curve" smooth="yes"/>
      <point x="1020" y="1181"/>
      <point x="1265" y="925"/>
      <point x="1265" y="608" type="curve" smooth="yes"/>
      <point x="1265" y="290"/>
      <point x="1020" y="33"/>
      <point x="725" y="33" type="curve" smooth="yes"/>
      <point x="429" y="33"/>
      <point x="184" y="290"/>
    </contour>
    <contour>
      <point x="129" y="608" type="curve" smooth="yes"/>
      <point x="129" y="254"/>
      <point x="396" y="-20"/>
      <point x="725" y="-20" type="curve" smooth="yes"/>
      <point x="1053" y="-20"/>
      <point x="1319" y="254"/>
      <point x="1319" y="608" type="curve" smooth="yes"/>
      <point x="1319" y="963"/>
      <point x="1053" y="1234"/>
      <point x="725" y="1234" type="curve" smooth="yes"/>
      <point x="396" y="1234"/>
      <point x="129" y="963"/>
    </contour>
    <contour>
      <point x="1360" y="1225" type="line"/>
      <point x="1319" y="1265" type="line"/>
      <point x="1117" y="1059" type="line"/>
      <point x="1158" y="1019" type="line"/>
    </contour>
    <contour>
      <point x="336" y="180" type="line"/>
      <point x="296" y="219" type="line"/>
      <point x="94" y="13" type="line"/>
      <point x="134" y="-26" type="line"/>
    </contour>
    <contour>
      <point x="1319" y="-27" type="line"/>
      <point x="1360" y="13" type="line"/>
      <point x="1158" y="219" type="line"/>
      <point x="1117" y="179" type="line"/>
    </contour>
    <contour>
      <point x="296" y="1019" type="line"/>
      <point x="336" y="1058" type="line"/>
      <point x="134" y="1264" type="line"/>
      <point x="94" y="1225" type="line"/>
    </contour>
  </outline>
</glyph>
<glyph name="ordfeminine" format="1">
  <advance width="860"/>
  <unicode hex="00AA"/>
  <outline>
    <contour>
      <point x="615" y="862" type="line" smooth="yes"/>
      <point x="615" y="807"/>
      <point x="623" y="753"/>
      <point x="638" y="706" type="curve"/>
      <point x="696" y="706" type="line"/>
      <point x="679" y="764"/>
      <point x="670" y="822"/>
      <point x="670" y="887" type="curve" smooth="yes"/>
      <point x="670" y="1201" type="line" smooth="yes"/>
      <point x="670" y="1384"/>
      <point x="565" y="1477"/>
      <point x="416" y="1477" type="curve" smooth="yes"/>
      <point x="241" y="1477"/>
      <point x="125" y="1379"/>
      <point x="125" y="1244" type="curve"/>
      <point x="179" y="1238" type="line"/>
      <point x="179" y="1362"/>
      <point x="268" y="1423"/>
      <point x="416" y="1423" type="curve" smooth="yes"/>
      <point x="548" y="1423"/>
      <point x="615" y="1340"/>
      <point x="615" y="1202" type="curve" smooth="yes"/>
    </contour>
    <contour>
      <point x="632" y="1133" type="line"/>
      <point x="395" y="1133" type="line" smooth="yes"/>
      <point x="205" y="1133"/>
      <point x="106" y="1053"/>
      <point x="106" y="920" type="curve" smooth="yes"/>
      <point x="106" y="782"/>
      <point x="195" y="692"/>
      <point x="355" y="692" type="curve" smooth="yes"/>
      <point x="513" y="692"/>
      <point x="610" y="793"/>
      <point x="643" y="878" type="curve"/>
      <point x="620" y="929" type="line"/>
      <point x="620" y="851"/>
      <point x="496" y="747"/>
      <point x="356" y="747" type="curve" smooth="yes"/>
      <point x="218" y="747"/>
      <point x="160" y="818"/>
      <point x="160" y="924" type="curve" smooth="yes"/>
      <point x="160" y="1006"/>
      <point x="239" y="1077"/>
      <point x="396" y="1077" type="curve" smooth="yes"/>
      <point x="633" y="1077" type="line"/>
    </contour>
  </outline>
</glyph>
<glyph name="plusminus" format="1">
  <advance width="1104"/>
  <unicode hex="00B1"/>
  <outline>
    <contour>
      <point x="991" y="805" type="line"/>
      <point x="75" y="805" type="line"/>
      <point x="75" y="751" type="line"/>
      <point x="991" y="751" type="line"/>
    </contour>
    <contour>
      <point x="572" y="1267" type="line"/>
      <point x="518" y="1267" type="line"/>
      <point x="518" y="289" type="line"/>
      <point x="572" y="289" type="line"/>
    </contour>
    <contour>
      <point x="1066" y="142" type="line"/>
      <point x="231" y="142" type="line"/>
      <point x="231" y="88" type="line"/>
      <point x="1066" y="88" type="line"/>
    </contour>
  </outline>
</glyph>
<glyph name="longs" format="1">
  <advance width="699"/>
  <unicode hex="017F"/>
  <outline>
    <contour>
      <point x="274" y="0" type="line"/>
      <point x="274" y="1260" type="line" smooth="yes"/>
      <point x="274" y="1429"/>
      <point x="361" y="1527"/>
      <point x="503" y="1527" type="curve" smooth="yes"/>
      <point x="557" y="1527"/>
      <point x="585" y="1522"/>
      <point x="622" y="1512" type="curve"/>
      <point x="630" y="1564" type="line"/>
      <point x="589" y="1577"/>
      <point x="544" y="1581"/>
      <point x="502" y="1581" type="curve" smooth="yes"/>
      <point x="326" y="1581"/>
      <point x="220" y="1467"/>
      <point x="220" y="1260" type="curve" smooth="yes"/>
      <point x="220" y="0" type="line"/>
    </contour>
    <contour>
      <point x="220" y="0" type="line"/>
      <point x="220" y="54" type="line"/>
      <point x="57" y="54" type="line"/>
      <point x="57" y="0" type="line"/>
    </contour>
    <contour>
      <point x="274" y="0" type="line"/>
      <point x="437" y="0" type="line"/>
      <point x="437" y="54" type="line"/>
      <point x="274" y="54" type="line"/>
    </contour>
  </outline>
</glyph>
<glyph name="Ohorn" format="1">
  <advance width="1453"/>
  <unicode hex="01A0"/>
  <outline>
    <contour>
      <point x="1445" y="1541" type="line"/>
      <point x="1445" y="1346"/>
      <point x="1396" y="1238"/>
      <point x="1186" y="1238" type="curve"/>
      <point x="1186" y="1184" type="line"/>
      <point x="1418" y="1184"/>
      <point x="1499" y="1309"/>
      <point x="1499" y="1541" type="curve"/>
    </contour>
    <contour>
      <point x="1338" y="737" type="line" smooth="yes"/>
      <point x="1338" y="1187"/>
      <point x="1088" y="1477"/>
      <point x="728" y="1477" type="curve" smooth="yes"/>
      <point x="369" y="1477"/>
      <point x="120" y="1187"/>
      <point x="120" y="737" type="curve" smooth="yes"/>
      <point x="120" y="719" type="line" smooth="yes"/>
      <point x="120" y="269"/>
      <point x="371" y="-21"/>
      <point x="730" y="-21" type="curve" smooth="yes"/>
      <point x="1090" y="-21"/>
      <point x="1338" y="269"/>
      <point x="1338" y="719" type="curve" smooth="yes"/>
    </contour>
    <contour>
      <point x="1284" y="719" type="line" smooth="yes"/>
      <point x="1284" y="306"/>
      <point x="1069" y="33"/>
      <point x="730" y="33" type="curve" smooth="yes"/>
      <point x="393" y="33"/>
      <point x="175" y="306"/>
      <point x="175" y="719" type="curve" smooth="yes"/>
      <point x="175" y="739" type="line" smooth="yes"/>
      <point x="175" y="1150"/>
      <point x="391" y="1423"/>
      <point x="728" y="1423" type="curve" smooth="yes"/>
      <point x="1067" y="1423"/>
      <point x="1284" y="1150"/>
      <point x="1284" y="739" type="curve" smooth="yes"/>
    </contour>
  </outline>
</glyph>
<glyph name="uni0237" format="1">
  <advance width="563"/>
  <unicode hex="0237"/>
  <outline>
    <contour>
      <point x="339" y="1082" type="line"/>
      <point x="339" y="-89" type="line" smooth="yes"/>
      <point x="339" y="-277"/>
      <point x="256" y="-383"/>
      <point x="108" y="-383" type="curve" smooth="yes"/>
      <point x="71" y="-383"/>
      <point x="30" y="-373"/>
      <point x="9" y="-365" type="curve"/>
      <point x="-4" y="-417" type="line"/>
      <point x="35" y="-430"/>
      <point x="67" y="-437"/>
      <point x="108" y="-437" type="curve" smooth="yes"/>
      <point x="287" y="-437"/>
      <point x="393" y="-314"/>
      <point x="393" y="-89" type="curve" smooth="yes"/>
      <point x="393" y="1082" type="line"/>
    </contour>
    <contour>
      <point x="339" y="1082" type="line"/>
      <point x="176" y="1082" type="line"/>
      <point x="176" y="1028" type="line"/>
      <point x="339" y="1028" type="line"/>
    </contour>
  </outline>
</glyph>
<glyph name="dotaccent" format="1">
  <advance width="474"/>
  <unicode hex="02D9"/>
  <outline>
    <contour>
      <point x="247" y="1456" type="line"/>
      <point x="152" y="1456" type="line"/>
      <point x="152" y="1318" type="line"/>
      <point x="247" y="1318" type="line"/>
    </contour>
  </outline>
</glyph>
<glyph name="gravecomb" format="1">
  <advance width="476"/>
  <unicode hex="0300"/>
  <outline>
    <contour>
      <point x="162" y="1509" type="line"/>
      <point x="87" y="1509" type="line"/>
      <point x="249" y="1218" type="line"/>
      <point x="315" y="1218" type="line"/>
    </contour>
  </outline>
</glyph>
<glyph name="eta" format="1">
  <advance width="1199"/>
  <unicode hex="03B7"/>
  <outline>
    <contour>
      <point x="271" y="554" type="line"/>
      <point x="271" y="785"/>
      <point x="354" y="1048"/>
      <point x="657" y="1048" type="curve" smooth="yes"/>
      <point x="824" y="1048"/>
      <point x="956" y="962"/>
      <point x="956" y="639" type="curve" smooth="yes"/>
      <point x="956" y="-416" type="line"/>
      <point x="1010" y="-416" type="line"/>
      <point x="1010" y="637" type="line" smooth="yes"/>
      <point x="1010" y="966"/>
      <point x="888" y="1102"/>
      <point x="656" y="1102" type="curve" smooth="yes"/>
      <point x="360" y="1102"/>
      <point x="226" y="875"/>
      <point x="226" y="554" type="curve"/>
    </contour>
    <contour>
      <point x="280" y="0" type="line"/>
      <point x="280" y="956" type="line" smooth="yes"/>
      <point x="280" y="1055"/>
      <point x="244" y="1092"/>
      <point x="148" y="1092" type="curve" smooth="yes"/>
      <point x="88" y="1092"/>
      <point x="27" y="1069"/>
      <point x="-4" y="1051" type="curve"/>
      <point x="16" y="1005" type="line"/>
      <point x="59" y="1026"/>
      <point x="101" y="1038"/>
      <point x="148" y="1038" type="curve" smooth="yes"/>
      <point x="197" y="1038"/>
      <point x="226" y="1019"/>
      <point x="226" y="955" type="curve"/>
      <point x="225" y="0" type="line"/>
    </contour>
  </outline>
</glyph>
<glyph name="upsilon" format="1">
  <advance width="1168"/>
  <unicode hex="03C5"/>
  <outline>
    <contour>
      <point x="283" y="961" type="line" smooth="yes"/>
      <point x="283" y="1060"/>
      <point x="247" y="1097"/>
      <point x="151" y="1097" type="curve" smooth="yes"/>
      <point x="92" y="1097"/>
      <point x="38" y="1080"/>
      <point x="-1" y="1056" type="curve"/>
      <point x="19" y="1010" type="line"/>
      <point x="62" y="1031"/>
      <point x="104" y="1043"/>
      <point x="151" y="1043" type="curve" smooth="yes"/>
      <point x="200" y="1043"/>
      <point x="229" y="1024"/>
      <point x="229" y="960" type="curve" smooth="yes"/>
      <point x="229" y="387" type="line" smooth="yes"/>
      <point x="229" y="98"/>
      <point x="365" y="-21"/>
      <point x="565" y="-21" type="curve" smooth="yes"/>
      <point x="842" y="-21"/>
      <point x="990" y="208"/>
      <point x="990" y="523" type="curve" smooth="yes"/>
      <point x="990" y="794"/>
      <point x="939" y="945"/>
      <point x="891" y="1082" type="curve"/>
      <point x="825" y="1082" type="line"/>
      <point x="888" y="926"/>
      <point x="937" y="739"/>
      <point x="937" y="520" type="curve" smooth="yes"/>
      <point x="937" y="273"/>
      <point x="828" y="33"/>
      <point x="563" y="33" type="curve" smooth="yes"/>
      <point x="401" y="33"/>
      <point x="283" y="132"/>
      <point x="283" y="385" type="curve" smooth="yes"/>
    </contour>
  </outline>
</glyph>
<glyph name="psi" format="1">
  <advance width="1524"/>
  <unicode hex="03C8"/>
  <outline>
    <contour>
      <point x="733" y="1081" type="line"/>
      <point x="733" y="-415" type="line"/>
      <point x="787" y="-415" type="line"/>
      <point x="787" y="1081" type="line"/>
    </contour>
    <contour>
      <point x="292" y="963" type="line" smooth="yes"/>
      <point x="292" y="1062"/>
      <point x="256" y="1099"/>
      <point x="160" y="1099" type="curve" smooth="yes"/>
      <point x="101" y="1099"/>
      <point x="47" y="1082"/>
      <point x="8" y="1058" type="curve"/>
      <point x="28" y="1012" type="line"/>
      <point x="71" y="1033"/>
      <point x="113" y="1045"/>
      <point x="160" y="1045" type="curve" smooth="yes"/>
      <point x="209" y="1045"/>
      <point x="238" y="1026"/>
      <point x="238" y="962" type="curve" smooth="yes"/>
      <point x="238" y="590" type="line"/>
      <point x="237" y="159"/>
      <point x="446" y="-21"/>
      <point x="766" y="-21" type="curve" smooth="yes"/>
      <point x="1156" y="-21"/>
      <point x="1314" y="234"/>
      <point x="1314" y="590" type="curve" smooth="yes"/>
      <point x="1314" y="828"/>
      <point x="1240" y="962"/>
      <point x="1175" y="1082" type="curve"/>
      <point x="1108" y="1082" type="line"/>
      <point x="1193" y="946"/>
      <point x="1260" y="779"/>
      <point x="1260" y="588" type="curve" smooth="yes"/>
      <point x="1260" y="307"/>
      <point x="1155" y="33"/>
      <point x="765" y="33" type="curve" smooth="yes"/>
      <point x="482" y="33"/>
      <point x="291" y="194"/>
      <point x="292" y="588" type="curve" smooth="yes"/>
    </contour>
  </outline>
</glyph>
<glyph name="uni0432" format="1">
  <advance width="1231"/>
  <unicode hex="0432"/>
  <outline>
    <contour>
      <point x="701" y="521" type="line"/>
      <point x="773" y="548" type="line"/>
      <point x="943" y="562"/>
      <point x="1038" y="669"/>
      <point x="1038" y="802" type="curve" smooth="yes"/>
      <point x="1038" y="994"/>
      <point x="883" y="1082"/>
      <point x="632" y="1082" type="curve" smooth="yes"/>
      <point x="260" y="1082" type="line"/>
      <point x="260" y="0" type="line"/>
      <point x="314" y="0" type="line"/>
      <point x="314" y="1027" type="line"/>
      <point x="632" y="1027" type="line" smooth="yes"/>
      <point x="862" y="1027"/>
      <point x="984" y="960"/>
      <point x="984" y="805" type="curve" smooth="yes"/>
      <point x="984" y="654"/>
      <point x="869" y="575"/>
      <point x="652" y="575" type="curve" smooth="yes"/>
      <point x="294" y="575" type="line"/>
      <point x="296" y="521" type="line"/>
    </contour>
    <contour>
      <point x="701" y="0" type="line" smooth="yes"/>
      <point x="928" y="0"/>
      <point x="1085" y="99"/>
      <point x="1085" y="293" type="curve" smooth="yes"/>
      <point x="1085" y="426"/>
      <point x="974" y="539"/>
      <point x="825" y="555" type="curve"/>
      <point x="791" y="575" type="line"/>
      <point x="431" y="575" type="line"/>
      <point x="429" y="521" type="line"/>
      <point x="701" y="521" type="line" smooth="yes"/>
      <point x="905" y="521"/>
      <point x="1032" y="428"/>
      <point x="1032" y="292" type="curve" smooth="yes"/>
      <point x="1032" y="137"/>
      <point x="905" y="54"/>
      <point x="701" y="54" type="curve" smooth="yes"/>
      <point x="288" y="54" type="line"/>
      <point x="288" y="0" type="line"/>
    </contour>
    <contour>
      <point x="260" y="1082" type="line"/>
      <point x="97" y="1082" type="line"/>
      <point x="97" y="1028" type="line"/>
      <point x="260" y="1028" type="line"/>
    </contour>
    <contour>
      <point x="260" y="0" type="line"/>
      <point x="260" y="54" type="line"/>
      <point x="97" y="54" type="line"/>
      <point x="97" y="0" type="line"/>
    </contour>
  </outline>
</glyph>
<glyph name="uni0437" format="1">
  <advance width="1030"/>
  <unicode hex="0437"/>
  <outline>
    <contour>
      <point x="490" y="531" type="line" smooth="yes"/>
      <point x="743" y="531"/>
      <point x="874" y="653"/>
      <point x="874" y="802" type="curve" smooth="yes"/>
      <point x="874" y="995"/>
      <point x="729" y="1098"/>
      <point x="489" y="1098" type="curve" smooth="yes"/>
      <point x="287" y="1098"/>
      <point x="100" y="984"/>
      <point x="100" y="799" type="curve"/>
      <point x="155" y="799" type="line"/>
      <point x="155" y="950"/>
      <point x="314" y="1044"/>
      <point x="489" y="1044" type="curve" smooth="yes"/>
      <point x="726" y="1044"/>
      <point x="819" y="942"/>
      <point x="819" y="805" type="curve" smooth="yes"/>
      <point x="819" y="668"/>
      <point x="729" y="580"/>
      <point x="486" y="580" type="curve" smooth="yes"/>
      <point x="341" y="580" type="line"/>
      <point x="341" y="531" type="line"/>
    </contour>
    <contour>
      <point x="341" y="572" type="line"/>
      <point x="341" y="525" type="line"/>
      <point x="486" y="525" type="line" smooth="yes"/>
      <point x="721" y="525"/>
      <point x="838" y="455"/>
      <point x="838" y="287" type="curve" smooth="yes"/>
      <point x="838" y="132"/>
      <point x="719" y="38"/>
      <point x="489" y="38" type="curve" smooth="yes"/>
      <point x="289" y="38"/>
      <point x="137" y="149"/>
      <point x="137" y="301" type="curve"/>
      <point x="82" y="301" type="line"/>
      <point x="82" y="83"/>
      <point x="299" y="-17"/>
      <point x="489" y="-17" type="curve" smooth="yes"/>
      <point x="729" y="-17"/>
      <point x="893" y="96"/>
      <point x="893" y="290" type="curve" smooth="yes"/>
      <point x="893" y="471"/>
      <point x="766" y="572"/>
      <point x="490" y="572" type="curve" smooth="yes"/>
    </contour>
  </outline>
</glyph>
<glyph name="uni0463" format="1">
  <advance width="1080"/>
  <unicode hex="0463"/>
  <outline>
    <contour>
      <point x="200" y="670" type="line"/>
      <point x="200" y="616" type="line"/>
      <point x="580" y="616" type="line" smooth="yes"/>
      <point x="816" y="616"/>
      <point x="913" y="479"/>
      <point x="913" y="337" type="curve" smooth="yes"/>
      <point x="913" y="189"/>
      <point x="816" y="54"/>
      <point x="580" y="54" type="curve" smooth="yes"/>
      <point x="235" y="54" type="line"/>
      <point x="235" y="1562" type="line"/>
      <point x="181" y="1562" type="line"/>
      <point x="181" y="0" type="line"/>
      <point x="580" y="0" type="line" smooth="yes"/>
      <point x="830" y="0"/>
      <point x="967" y="141"/>
      <point x="967" y="335" type="curve" smooth="yes"/>
      <point x="967" y="527"/>
      <point x="830" y="670"/>
      <point x="580" y="670" type="curve" smooth="yes"/>
    </contour>
    <contour>
      <point x="564" y="1136" type="line"/>
      <point x="-23" y="1136" type="line"/>
      <point x="-23" y="1082" type="line"/>
      <point x="564" y="1082" type="line"/>
    </contour>
    <contour>
      <point x="181" y="1562" type="line"/>
      <point x="18" y="1562" type="line"/>
      <point x="18" y="1508" type="line"/>
      <point x="181" y="1508" type="line"/>
    </contour>
    <contour>
      <point x="181" y="0" type="line"/>
      <point x="181" y="54" type="line"/>
      <point x="18" y="54" type="line"/>
      <point x="18" y="0" type="line"/>
    </contour>
  </outline>
</glyph>
<glyph name="uni0465" format="1">
  <advance width="1540"/>
  <unicode hex="0465"/>
  <outline>
    <contour>
      <point x="1172" y="588" type="line"/>
      <point x="272" y="588" type="line"/>
      <point x="272" y="534" type="line"/>
      <point x="1172" y="534" type="line"/>
    </contour>
    <contour>
      <point x="988" y="33" type="curve" smooth="yes"/>
      <point x="721" y="33"/>
      <point x="600" y="249"/>
      <point x="600" y="520" type="curve" smooth="yes"/>
      <point x="600" y="562" type="line" smooth="yes"/>
      <point x="600" y="831"/>
      <point x="721" y="1048"/>
      <point x="986" y="1048" type="curve" smooth="yes"/>
      <point x="1138" y="1048"/>
      <point x="1253" y="985"/>
      <point x="1325" y="895" type="curve"/>
      <point x="1325" y="683" type="line"/>
      <point x="1379" y="683" type="line"/>
      <point x="1379" y="915" type="line"/>
      <point x="1297" y="1028"/>
      <point x="1151" y="1102"/>
      <point x="986" y="1102" type="curve" smooth="yes"/>
      <point x="707" y="1102"/>
      <point x="546" y="879"/>
      <point x="546" y="562" type="curve" smooth="yes"/>
      <point x="546" y="520" type="line" smooth="yes"/>
      <point x="546" y="203"/>
      <point x="707" y="-21"/>
      <point x="988" y="-21" type="curve" smooth="yes"/>
      <point x="1184" y="-21"/>
      <point x="1389" y="103"/>
      <point x="1389" y="333" type="curve"/>
      <point x="1335" y="333" type="line"/>
      <point x="1335" y="116"/>
      <point x="1148" y="33"/>
    </contour>
    <contour>
      <point x="305" y="1082" type="line"/>
      <point x="251" y="1082" type="line"/>
      <point x="251" y="0" type="line"/>
      <point x="305" y="0" type="line"/>
    </contour>
    <contour>
      <point x="251" y="0" type="line"/>
      <point x="251" y="54" type="line"/>
      <point x="88" y="54" type="line"/>
      <point x="88" y="0" type="line"/>
    </contour>
    <contour>
      <point x="305" y="0" type="line"/>
      <point x="468" y="0" type="line"/>
      <point x="468" y="54" type="line"/>
      <point x="305" y="54" type="line"/>
    </contour>
    <contour>
      <point x="251" y="1082" type="line"/>
      <point x="88" y="1082" type="line"/>
      <point x="88" y="1028" type="line"/>
      <point x="251" y="1028" type="line"/>
    </contour>
  </outline>
</glyph>
<glyph name="uni0468" format="1">
  <advance width="1992"/>
  <unicode hex="0468"/>
  <outline>
    <contour>
      <point x="968" y="562" type="line"/>
      <point x="259" y="562" type="line"/>
      <point x="259" y="508" type="line"/>
      <point x="968" y="508" type="line"/>
    </contour>
    <contour>
      <point x="1215" y="1304" type="line"/>
      <point x="1264" y="1456" type="line"/>
      <point x="1212" y="1456" type="line"/>
      <point x="668" y="0" type="line"/>
      <point x="727" y="0" type="line"/>
    </contour>
    <contour>
      <point x="1764" y="0" type="line"/>
      <point x="1823" y="0" type="line"/>
      <point x="1278" y="1456" type="line"/>
      <point x="1227" y="1456" type="line"/>
      <point x="1276" y="1304" type="line"/>
    </contour>
    <contour>
      <point x="1596" y="562" type="line"/>
      <point x="894" y="562" type="line"/>
      <point x="894" y="508" type="line"/>
      <point x="1596" y="508" type="line"/>
    </contour>
    <contour>
      <point x="1266" y="540" type="line"/>
      <point x="1212" y="540" type="line"/>
      <point x="1212" y="0" type="line"/>
      <point x="1266" y="0" type="line"/>
    </contour>
    <contour>
      <point x="727" y="0" type="line"/>
      <point x="890" y="0" type="line"/>
      <point x="890" y="54" type="line"/>
      <point x="727" y="54" type="line"/>
    </contour>
    <contour>
      <point x="668" y="0" type="line"/>
      <point x="732" y="54" type="line"/>
      <point x="581" y="54" type="line"/>
      <point x="581" y="0" type="line"/>
    </contour>
    <contour>
      <point x="1823" y="0" type="line"/>
      <point x="1910" y="0" type="line"/>
      <point x="1910" y="54" type="line"/>
      <point x="1759" y="54" type="line"/>
    </contour>
    <contour>
      <point x="1764" y="0" type="line"/>
      <point x="1764" y="54" type="line"/>
      <point x="1601" y="54" type="line"/>
      <point x="1601" y="0" type="line"/>
    </contour>
    <contour>
      <point x="302" y="1456" type="line"/>
      <point x="248" y="1456" type="line"/>
      <point x="248" y="0" type="line"/>
      <point x="302" y="0" type="line"/>
    </contour>
    <contour>
      <point x="248" y="0" type="line"/>
      <point x="248" y="54" type="line"/>
      <point x="85" y="54" type="line"/>
      <point x="85" y="0" type="line"/>
    </contour>
    <contour>
      <point x="302" y="0" type="line"/>
      <point x="465" y="0" type="line"/>
      <point x="465" y="54" type="line"/>
      <point x="302" y="54" type="line"/>
    </contour>
    <contour>
      <point x="302" y="1456" type="line"/>
      <point x="302" y="1402" type="line"/>
      <point x="465" y="1402" type="line"/>
      <point x="465" y="1456" type="line"/>
    </contour>
    <contour>
      <point x="248" y="1456" type="line"/>
      <point x="85" y="1456" type="line"/>
      <point x="85" y="1402" type="line"/>
      <point x="248" y="1402" type="line"/>
    </contour>
  </outline>
</glyph>
<glyph name="uni0474" format="1">
  <advance width="1387"/>
  <unicode hex="0474"/>
  <outline>
    <contour>
      <point x="677" y="142" type="line"/>
      <point x="630" y="0" type="line"/>
      <point x="681" y="0" type="line"/>
      <point x="1073" y="1204" type="line" smooth="yes"/>
      <point x="1139" y="1419"/>
      <point x="1241" y="1429"/>
      <point x="1318" y="1429" type="curve" smooth="yes"/>
      <point x="1328" y="1429" type="line"/>
      <point x="1329" y="1476" type="line"/>
      <point x="1320" y="1476" type="line" smooth="yes"/>
      <point x="1182" y="1476"/>
      <point x="1086" y="1416"/>
      <point x="1029" y="1228" type="curve" smooth="yes"/>
    </contour>
    <contour>
      <point x="203" y="1456" type="line"/>
      <point x="144" y="1456" type="line"/>
      <point x="616" y="0" type="line"/>
      <point x="667" y="0" type="line"/>
      <point x="620" y="142" type="line"/>
    </contour>
    <contour>
      <point x="144" y="1456" type="line"/>
      <point x="57" y="1456" type="line"/>
      <point x="57" y="1402" type="line"/>
      <point x="208" y="1402" type="line"/>
    </contour>
    <contour>
      <point x="203" y="1456" type="line"/>
      <point x="203" y="1402" type="line"/>
      <point x="366" y="1402" type="line"/>
      <point x="366" y="1456" type="line"/>
    </contour>
  </outline>
</glyph>
<glyph name="uni0484" format="1">
  <advance width="1014"/>
  <unicode hex="0484"/>
  <outline>
    <contour>
      <point x="137" y="1361" type="line"/>
      <point x="137" y="1317" type="line"/>
      <point x="154" y="1317" type="line" smooth="yes"/>
      <point x="387" y="1317"/>
      <point x="433" y="1504"/>
      <point x="595" y="1504" type="curve" smooth="yes"/>
      <point x="723" y="1504"/>
      <point x="780" y="1415"/>
      <point x="780" y="1321" type="curve" smooth="yes"/>
      <point x="780" y="1303" type="line"/>
      <point x="835" y="1303" type="line"/>
      <point x="835" y="1329" type="line" smooth="yes"/>
      <point x="835" y="1453"/>
      <point x="747" y="1557"/>
      <point x="599" y="1557" type="curve" smooth="yes"/>
      <point x="418" y="1557"/>
      <point x="359" y="1361"/>
      <point x="151" y="1361" type="curve" smooth="yes"/>
    </contour>
  </outline>
</glyph>
<glyph name="uni0486" format="1">
  <advance width="453"/>
  <unicode hex="0486"/>
  <outline>
    <contour>
      <point x="287" y="1500" type="line"/>
      <point x="287" y="1642" type="line"/>
      <point x="190" y="1642" type="line"/>
      <point x="190" y="1503" type="line"/>
      <point x="126" y="1377" type="line"/>
      <point x="162" y="1349" type="line"/>
    </contour>
  </outline>
</glyph>
<glyph name="uni0493" format="1">
  <advance width="1030"/>
  <unicode hex="0493"/>
  <outline>
    <contour>
      <point x="885" y="1082" type="line"/>
      <point x="235" y="1082" type="line"/>
      <point x="235" y="0" type="line"/>
      <point x="289" y="0" type="line"/>
      <point x="289" y="1027" type="line"/>
      <point x="885" y="1027" type="line"/>
    </contour>
    <contour>
      <point x="235" y="54" type="line"/>
      <point x="72" y="54" type="line"/>
      <point x="72" y="0" type="line"/>
      <point x="235" y="0" type="line"/>
    </contour>
    <contour>
      <point x="895" y="1082" type="line"/>
      <point x="841" y="1082" type="line"/>
      <point x="841" y="890" type="line"/>
      <point x="895" y="890" type="line"/>
    </contour>
    <contour>
      <point x="235" y="1082" type="line"/>
      <point x="72" y="1082" type="line"/>
      <point x="72" y="1028" type="line"/>
      <point x="235" y="1028" type="line"/>
    </contour>
    <contour>
      <point x="452" y="54" type="line"/>
      <point x="289" y="54" type="line"/>
      <point x="289" y="0" type="line"/>
      <point x="452" y="0" type="line"/>
    </contour>
    <contour>
      <point x="622" y="612" type="line"/>
      <point x="35" y="612" type="line"/>
      <point x="35" y="558" type="line"/>
      <point x="622" y="558" type="line"/>
    </contour>
  </outline>
</glyph>
<glyph name="uni04B9" format="1">
  <advance width="1316"/>
  <unicode hex="04B9"/>
  <outline>
    <contour>
      <point x="665" y="749" type="line"/>
      <point x="609" y="749" type="line"/>
      <point x="609" y="193" type="line"/>
      <point x="665" y="193" type="line"/>
    </contour>
    <contour>
      <point x="1061" y="1082" type="line"/>
      <point x="1007" y="1082" type="line"/>
      <point x="1007" y="0" type="line"/>
      <point x="1061" y="0" type="line"/>
    </contour>
    <contour>
      <point x="1042" y="596" type="line"/>
      <point x="995" y="554"/>
      <point x="826" y="502"/>
      <point x="692" y="496" type="curve" smooth="yes"/>
      <point x="443" y="496"/>
      <point x="337" y="566"/>
      <point x="337" y="848" type="curve" smooth="yes"/>
      <point x="337" y="1082" type="line"/>
      <point x="283" y="1082" type="line"/>
      <point x="283" y="848" type="line" smooth="yes"/>
      <point x="283" y="521"/>
      <point x="411" y="442"/>
      <point x="692" y="442" type="curve" smooth="yes"/>
      <point x="805" y="442"/>
      <point x="970" y="496"/>
      <point x="1042" y="542" type="curve"/>
    </contour>
    <contour>
      <point x="283" y="1082" type="line"/>
      <point x="120" y="1082" type="line"/>
      <point x="120" y="1028" type="line"/>
      <point x="283" y="1028" type="line"/>
    </contour>
    <contour>
      <point x="337" y="1082" type="line"/>
      <point x="337" y="1028" type="line"/>
      <point x="500" y="1028" type="line"/>
      <point x="500" y="1082" type="line"/>
    </contour>
    <contour>
      <point x="1007" y="0" type="line"/>
      <point x="1007" y="54" type="line"/>
      <point x="844" y="54" type="line"/>
      <point x="844" y="0" type="line"/>
    </contour>
    <contour>
      <point x="1061" y="0" type="line"/>
      <point x="1224" y="0" type="line"/>
      <point x="1224" y="54" type="line"/>
      <point x="1061" y="54" type="line"/>
    </contour>
    <contour>
      <point x="1061" y="1082" type="line"/>
      <point x="1061" y="1028" type="line"/>
      <point x="1224" y="1028" type="line"/>
      <point x="1224" y="1082" type="line"/>
    </contour>
    <contour>
      <point x="1007" y="1082" type="line"/>
      <point x="844" y="1082" type="line"/>
      <point x="844" y="1028" type="line"/>
      <point x="1007" y="1028" type="line"/>
    </contour>
  </outline>
</glyph>
<glyph name="uni04E0" format="1">
  <advance width="1097"/>
  <unicode hex="04E0"/>
  <outline>
    <contour>
      <point x="98" y="1456" type="line"/>
      <point x="98" y="1402" type="line"/>
      <point x="909" y="1402" type="line"/>
      <point x="423" y="834" type="line"/>
      <point x="423" y="817" type="line"/>
      <point x="481" y="817" type="line"/>
      <point x="970" y="1388" type="line"/>
      <point x="967" y="1456" type="line"/>
    </contour>
    <contour>
      <point x="423" y="827" type="line"/>
      <point x="423" y="779" type="line"/>
      <point x="524" y="779" type="line" smooth="yes"/>
      <point x="773" y="779"/>
      <point x="908" y="663"/>
      <point x="908" y="382" type="curve" smooth="yes"/>
      <point x="908" y="165"/>
      <point x="770" y="33"/>
      <point x="528" y="33" type="curve" smooth="yes"/>
      <point x="291" y="33"/>
      <point x="133" y="188"/>
      <point x="133" y="404" type="curve"/>
      <point x="77" y="404" type="line"/>
      <point x="77" y="112"/>
      <point x="308" y="-21"/>
      <point x="528" y="-21" type="curve" smooth="yes"/>
      <point x="778" y="-21"/>
      <point x="962" y="128"/>
      <point x="962" y="386" type="curve" smooth="yes"/>
      <point x="962" y="670"/>
      <point x="822" y="827"/>
      <point x="528" y="827" type="curve" smooth="yes"/>
    </contour>
    <contour>
      <point x="98" y="1456" type="line"/>
      <point x="98" y="1163" type="line"/>
      <point x="152" y="1163" type="line"/>
      <point x="152" y="1456" type="line"/>
    </contour>
  </outline>
</glyph>
<glyph name="uni050C" format="1">
  <advance width="1234"/>
  <unicode hex="050C"/>
  <outline>
    <contour>
      <point x="652" y="-21" type="curve" smooth="yes"/>
      <point x="896" y="-21"/>
      <point x="1111" y="124"/>
      <point x="1116" y="425" type="curve" smooth="yes"/>
      <point x="1118" y="547"/>
      <point x="1095" y="669"/>
      <point x="1070" y="786" type="curve"/>
      <point x="1012" y="786" type="line"/>
      <point x="1041" y="668"/>
      <point x="1064" y="544"/>
      <point x="1062" y="425" type="curve" smooth="yes"/>
      <point x="1057" y="184"/>
      <point x="915" y="36"/>
      <point x="652" y="33" type="curve" smooth="yes"/>
      <point x="347" y="33"/>
      <point x="168" y="286"/>
      <point x="168" y="597" type="curve" smooth="yes"/>
      <point x="168" y="861" type="line" smooth="yes"/>
      <point x="168" y="1170"/>
      <point x="347" y="1423"/>
      <point x="652" y="1423" type="curve" smooth="yes"/>
      <point x="768" y="1423"/>
      <point x="862" y="1399"/>
      <point x="948" y="1355" type="curve"/>
      <point x="969" y="1412" type="line"/>
      <point x="890" y="1455"/>
      <point x="787" y="1477"/>
      <point x="652" y="1477" type="curve" smooth="yes"/>
      <point x="331" y="1477"/>
      <point x="114" y="1213"/>
      <point x="114" y="859" type="curve" smooth="yes"/>
      <point x="114" y="597" type="line" smooth="yes"/>
      <point x="114" y="243"/>
      <point x="331" y="-21"/>
    </contour>
    <contour>
      <point x="1012" y="786" type="line"/>
      <point x="835" y="786" type="line"/>
      <point x="835" y="732" type="line"/>
      <point x="1076" y="732" type="line"/>
    </contour>
  </outline>
</glyph>
<glyph name="uni2025" format="1">
  <advance width="893"/>
  <unicode hex="2025"/>
  <outline>
    <contour>
      <point x="269" y="130" type="line"/>
      <point x="183" y="130" type="line"/>
      <point x="183" y="0" type="line"/>
      <point x="269" y="0" type="line"/>
    </contour>
    <contour>
      <point x="653" y="130" type="line"/>
      <point x="567" y="130" type="line"/>
      <point x="567" y="0" type="line"/>
      <point x="653" y="0" type="line"/>
    </contour>
  </outline>
</glyph>
<glyph name="uni2105" format="1">
  <advance width="1439"/>
  <unicode hex="2105"/>
  <outline>
    <contour>
      <point x="546" y="1014" type="line"/>
      <point x="546" y="939"/>
      <point x="484" y="855"/>
      <point x="353" y="855" type="curve" smooth="yes"/>
      <point x="218" y="855"/>
      <point x="134" y="978"/>
      <point x="134" y="1099" type="curve" smooth="yes"/>
      <point x="134" y="1176" type="line" smooth="yes"/>
      <point x="134" y="1299"/>
      <point x="220" y="1422"/>
      <point x="351" y="1422" type="curve" smooth="yes"/>
      <point x="483" y="1422"/>
      <point x="546" y="1342"/>
      <point x="546" y="1261" type="curve"/>
      <point x="601" y="1261" type="line"/>
      <point x="601" y="1379"/>
      <point x="501" y="1477"/>
      <point x="351" y="1477" type="curve" smooth="yes"/>
      <point x="201" y="1477"/>
      <point x="79" y="1341"/>
      <point x="79" y="1176" type="curve" smooth="yes"/>
      <point x="79" y="1099" type="line" smooth="yes"/>
      <point x="79" y="936"/>
      <point x="201" y="800"/>
      <point x="353" y="800" type="curve" smooth="yes"/>
      <point x="502" y="800"/>
      <point x="601" y="898"/>
      <point x="601" y="1014" type="curve"/>
    </contour>
    <contour>
      <point x="835" y="279" type="line" smooth="yes"/>
      <point x="835" y="115"/>
      <point x="944" y="-21"/>
      <point x="1108" y="-21" type="curve" smooth="yes"/>
      <point x="1270" y="-21"/>
      <point x="1378" y="115"/>
      <point x="1378" y="279" type="curve" smooth="yes"/>
      <point x="1378" y="357" type="line" smooth="yes"/>
      <point x="1378" y="521"/>
      <point x="1270" y="657"/>
      <point x="1106" y="657" type="curve" smooth="yes"/>
      <point x="944" y="657"/>
      <point x="835" y="521"/>
      <point x="835" y="357" type="curve" smooth="yes"/>
    </contour>
    <contour>
      <point x="890" y="357" type="line" smooth="yes"/>
      <point x="890" y="491"/>
      <point x="963" y="602"/>
      <point x="1106" y="602" type="curve" smooth="yes"/>
      <point x="1253" y="602"/>
      <point x="1323" y="491"/>
      <point x="1323" y="357" type="curve" smooth="yes"/>
      <point x="1323" y="279" type="line" smooth="yes"/>
      <point x="1323" y="156"/>
      <point x="1254" y="34"/>
      <point x="1108" y="34" type="curve" smooth="yes"/>
      <point x="959" y="34"/>
      <point x="890" y="157"/>
      <point x="890" y="279" type="curve" smooth="yes"/>
    </contour>
    <contour>
      <point x="1108" y="1269" type="line"/>
      <point x="1063" y="1300" type="line"/>
      <point x="352" y="162" type="line"/>
      <point x="397" y="131" type="line"/>
    </contour>
  </outline>
</glyph>
<glyph name="uniFFFD" format="1">
  <advance width="1979"/>
  <unicode hex="FFFD"/>
  <outline>
    <contour>
      <point x="35" y="643" type="line"/>
      <point x="991" y="-332" type="line"/>
      <point x="1950" y="643" type="line"/>
      <point x="991" y="1618" type="line"/>
    </contour>
    <contour>
      <point x="872" y="402" type="line"/>
      <point x="873" y="529"/>
      <point x="916" y="569"/>
      <point x="1010" y="635" type="curve" smooth="yes"/>
      <point x="1063" y="670"/>
      <point x="1103" y="721"/>
      <point x="1103" y="790" type="curve" smooth="yes"/>
      <point x="1103" y="859"/>
      <point x="1065" y="906"/>
      <point x="990" y="906" type="curve" smooth="yes"/>
      <point x="938" y="906"/>
      <point x="889" y="876"/>
      <point x="887" y="803" type="curve"/>
      <point x="684" y="803" type="line"/>
      <point x="687" y="991"/>
      <point x="820" y="1069"/>
      <point x="990" y="1069" type="curve" smooth="yes"/>
      <point x="1188" y="1069"/>
      <point x="1306" y="961"/>
      <point x="1306" y="790" type="curve" smooth="yes"/>
      <point x="1306" y="681"/>
      <point x="1230" y="591"/>
      <point x="1140" y="542" type="curve"/>
      <point x="1085" y="506"/>
      <point x="1074" y="470"/>
      <point x="1074" y="402" type="curve"/>
    </contour>
    <contour>
      <point x="1074" y="141" type="line"/>
      <point x="872" y="141" type="line"/>
      <point x="872" y="311" type="line"/>
      <point x="1074" y="311" type="line"/>
    </contour>
    <contour>
      <point x="999" y="-555" type="line"/>
      <point x="1003" y="-555" type="line"/>
      <point x="1003" y="-551" type="line"/>
      <point x="999" y="-551" type="line"/>
    </contour>
    <contour>
      <point x="997" y="2142" type="line"/>
      <point x="1001" y="2142" type="line"/>
      <point x="1001" y="2146" type="line"/>
      <point x="997" y="2146" type="line"/>
    </contour>
  </outline>
</glyph>
<glyph name="S.smcp" format="1">
  <advance width="1099"/>
  <outline>
    <contour>
      <point x="909" y="279" type="curve" smooth="yes"/>
      <point x="909" y="151"/>
      <point x="771" y="38"/>
      <point x="524" y="38" type="curve" smooth="yes"/>
      <point x="347" y="38"/>
      <point x="143" y="104"/>
      <point x="143" y="330" type="curve"/>
      <point x="88" y="330" type="line"/>
      <point x="88" y="70"/>
      <point x="310" y="-17"/>
      <point x="524" y="-17" type="curve" smooth="yes"/>
      <point x="790" y="-17"/>
      <point x="963" y="96"/>
      <point x="963" y="280" type="curve" smooth="yes"/>
      <point x="963" y="472"/>
      <point x="802" y="541"/>
      <point x="548" y="608" type="curve" smooth="yes"/>
      <point x="241" y="689"/>
      <point x="183" y="759"/>
      <point x="183" y="886" type="curve" smooth="yes"/>
      <point x="183" y="1011"/>
      <point x="291" y="1127"/>
      <point x="536" y="1127" type="curve" smooth="yes"/>
      <point x="765" y="1127"/>
      <point x="890" y="1002"/>
      <point x="890" y="835" type="curve"/>
      <point x="945" y="835" type="line"/>
      <point x="945" y="1059"/>
      <point x="790" y="1181"/>
      <point x="536" y="1181" type="curve" smooth="yes"/>
      <point x="288" y="1181"/>
      <point x="128" y="1064"/>
      <point x="128" y="885" type="curve" smooth="yes"/>
      <point x="128" y="694"/>
      <point x="283" y="623"/>
      <point x="532" y="556" type="curve" smooth="yes"/>
      <point x="823" y="477"/>
      <point x="909" y="413"/>
    </contour>
  </outline>
</glyph>
<glyph name="V.smcp" format="1">
  <advance width="1324"/>
  <outline>
    <contour>
      <point x="682" y="129" type="line"/>
      <point x="638" y="0" type="line"/>
      <point x="687" y="0" type="line"/>
      <point x="1163" y="1165" type="line"/>
      <point x="1104" y="1165" type="line"/>
    </contour>
    <contour>
      <point x="211" y="1165" type="line"/>
      <point x="151" y="1165" type="line"/>
      <point x="627" y="0" type="line"/>
      <point x="676" y="0" type="line"/>
      <point x="633" y="129" type="line"/>
    </contour>
    <contour>
      <point x="1104" y="1165" type="line"/>
      <point x="941" y="1165" type="line"/>
      <point x="941" y="1111" type="line"/>
      <point x="1104" y="1111" type="line"/>
    </contour>
    <contour>
      <point x="1163" y="1165" type="line"/>
      <point x="1099" y="1111" type="line"/>
      <point x="1250" y="1111" type="line"/>
      <point x="1250" y="1165" type="line"/>
    </contour>
    <contour>
      <point x="151" y="1165" type="line"/>
      <point x="64" y="1165" type="line"/>
      <point x="64" y="1111" type="line"/>
      <point x="215" y="1111" type="line"/>
    </contour>
    <contour>
      <point x="211" y="1165" type="line"/>
      <point x="211" y="1111" type="line"/>
      <point x="374" y="1111" type="line"/>
      <point x="374" y="1165" type="line"/>
    </contour>
  </outline>
</glyph>
<glyph name="X.smcp" format="1">
  <advance width="1300"/>
  <outline>
    <contour>
      <point x="251" y="1165" type="line"/>
      <point x="184" y="1165" type="line"/>
      <point x="621" y="593" type="line"/>
      <point x="167" y="0" type="line"/>
      <point x="235" y="0" type="line"/>
      <point x="655" y="543" type="line"/>
      <point x="1075" y="0" type="line"/>
      <point x="1142" y="0" type="line"/>
      <point x="688" y="593" type="line"/>
      <point x="1125" y="1165" type="line"/>
      <point x="1059" y="1165" type="line"/>
      <point x="655" y="643" type="line"/>
    </contour>
    <contour>
      <point x="1059" y="1165" type="line"/>
      <point x="896" y="1165" type="line"/>
      <point x="896" y="1111" type="line"/>
      <point x="1059" y="1111" type="line"/>
    </contour>
    <contour>
      <point x="1125" y="1165" type="line"/>
      <point x="1061" y="1111" type="line"/>
      <point x="1212" y="1111" type="line"/>
      <point x="1212" y="1165" type="line"/>
    </contour>
    <contour>
      <point x="1075" y="0" type="line"/>
      <point x="1075" y="54" type="line"/>
      <point x="912" y="54" type="line"/>
      <point x="912" y="0" type="line"/>
    </contour>
    <contour>
      <point x="1142" y="0" type="line"/>
      <point x="1229" y="0" type="line"/>
      <point x="1229" y="54" type="line"/>
      <point x="1078" y="54" type="line"/>
    </contour>
    <contour>
      <point x="235" y="0" type="line"/>
      <point x="398" y="0" type="line"/>
      <point x="398" y="54" type="line"/>
      <point x="235" y="54" type="line"/>
    </contour>
    <contour>
      <point x="167" y="0" type="line"/>
      <point x="231" y="54" type="line"/>
      <point x="80" y="54" type="line"/>
      <point x="80" y="0" type="line"/>
    </contour>
    <contour>
      <point x="251" y="1165" type="line"/>
      <point x="251" y="1111" type="line"/>
      <point x="414" y="1111" type="line"/>
      <point x="414" y="1165" type="line"/>
    </contour>
    <contour>
      <point x="184" y="1165" type="line"/>
      <point x="97" y="1165" type="line"/>
      <point x="97" y="1111" type="line"/>
      <point x="248" y="1111" type="line"/>
    </contour>
  </outline>
</glyph>
<glyph name="Z.smcp" format="1">
  <advance width="1115"/>
  <outline>
    <contour>
      <point x="1008" y="54" type="line"/>
      <point x="114" y="54" type="line"/>
      <point x="114" y="0" type="line"/>
      <point x="1008" y="0" type="line"/>
    </contour>
    <contour>
      <point x="981" y="1124" type="line"/>
      <point x="981" y="1165" type="line"/>
      <point x="943" y="1165" type="line"/>
      <point x="95" y="46" type="line"/>
      <point x="95" y="0" type="line"/>
      <point x="132" y="0" type="line"/>
    </contour>
    <contour>
      <point x="956" y="1165" type="line"/>
      <point x="129" y="1165" type="line"/>
      <point x="129" y="1112" type="line"/>
      <point x="956" y="1112" type="line"/>
    </contour>
    <contour>
      <point x="129" y="1165" type="line"/>
      <point x="129" y="872" type="line"/>
      <point x="183" y="872" type="line"/>
      <point x="183" y="1165" type="line"/>
    </contour>
    <contour>
      <point x="1008" y="0" type="line"/>
      <point x="1008" y="293" type="line"/>
      <point x="954" y="293" type="line"/>
      <point x="954" y="0" type="line"/>
    </contour>
  </outline>
</glyph>
<glyph name="breveacutecomb" format="1">
  <advance width="804"/>
  <outline>
    <contour>
      <point x="612" y="1456" type="line"/>
      <point x="612" y="1370"/>
      <point x="547" y="1294"/>
      <point x="386" y="1294" type="curve" smooth="yes"/>
      <point x="219" y="1294"/>
      <point x="158" y="1368"/>
      <point x="158" y="1456" type="curve"/>
      <point x="104" y="1456" type="line"/>
      <point x="104" y="1333"/>
      <point x="210" y="1248"/>
      <point x="386" y="1248" type="curve" smooth="yes"/>
      <point x="561" y="1248"/>
      <point x="667" y="1333"/>
      <point x="667" y="1456" type="curve"/>
    </contour>
    <contour>
      <point x="322" y="1424" type="line"/>
      <point x="377" y="1424" type="line"/>
      <point x="553" y="1637" type="line"/>
      <point x="488" y="1637" type="line"/>
    </contour>
  </outline>
</glyph>
<glyph name="eight.lnum" format="1">
  <advance width="1158"/>
  <outline>
    <contour>
      <point x="1027" y="379" type="curve" smooth="yes"/>
      <point x="1027" y="608"/>
      <point x="819" y="765"/>
      <point x="562" y="765" type="curve" smooth="yes"/>
      <point x="301" y="765"/>
      <point x="99" y="608"/>
      <point x="99" y="379" type="curve" smooth="yes"/>
      <point x="99" y="114"/>
      <point x="301" y="-21"/>
      <point x="564" y="-21" type="curve" smooth="yes"/>
      <point x="821" y="-21"/>
      <point x="1027" y="114"/>
    </contour>
    <contour>
      <point x="972" y="374" type="curve" smooth="yes"/>
      <point x="972" y="154"/>
      <point x="791" y="33"/>
      <point x="564" y="33" type="curve" smooth="yes"/>
      <point x="331" y="33"/>
      <point x="153" y="154"/>
      <point x="153" y="374" type="curve" smooth="yes"/>
      <point x="153" y="584"/>
      <point x="331" y="718"/>
      <point x="562" y="718" type="curve" smooth="yes"/>
      <point x="789" y="718"/>
      <point x="972" y="584"/>
    </contour>
    <contour>
      <point x="985" y="1086" type="curve" smooth="yes"/>
      <point x="985" y="1339"/>
      <point x="797" y="1477"/>
      <point x="562" y="1477" type="curve" smooth="yes"/>
      <point x="324" y="1477"/>
      <point x="140" y="1339"/>
      <point x="140" y="1086" type="curve" smooth="yes"/>
      <point x="140" y="871"/>
      <point x="324" y="723"/>
      <point x="564" y="723" type="curve" smooth="yes"/>
      <point x="799" y="723"/>
      <point x="985" y="871"/>
    </contour>
    <contour>
      <point x="931" y="1091" type="curve" smooth="yes"/>
      <point x="931" y="894"/>
      <point x="769" y="772"/>
      <point x="564" y="772" type="curve" smooth="yes"/>
      <point x="353" y="772"/>
      <point x="194" y="894"/>
      <point x="194" y="1091" type="curve" smooth="yes"/>
      <point x="194" y="1297"/>
      <point x="353" y="1423"/>
      <point x="562" y="1423" type="curve" smooth="yes"/>
      <point x="767" y="1423"/>
      <point x="931" y="1285"/>
    </contour>
  </outline>
</glyph>
<glyph name="six.sup" format="1">
  <advance width="845"/>
  <outline>
    <contour>
      <point x="442" y="812" type="curve" smooth="yes"/>
      <point x="272" y="812"/>
      <point x="130" y="687"/>
      <point x="130" y="510" type="curve" smooth="yes"/>
      <point x="130" y="294" type="line" smooth="yes"/>
      <point x="130" y="113"/>
      <point x="253" y="-11"/>
      <point x="417" y="-11" type="curve" smooth="yes"/>
      <point x="586" y="-11"/>
      <point x="703" y="93"/>
      <point x="703" y="240" type="curve" smooth="yes"/>
      <point x="703" y="398"/>
      <point x="607" y="492"/>
      <point x="436" y="492" type="curve" smooth="yes"/>
      <point x="256" y="492"/>
      <point x="151" y="385"/>
      <point x="151" y="267" type="curve"/>
      <point x="178" y="266" type="line"/>
      <point x="178" y="366"/>
      <point x="290" y="437"/>
      <point x="427" y="437" type="curve" smooth="yes"/>
      <point x="578" y="437"/>
      <point x="647" y="365"/>
      <point x="647" y="240" type="curve" smooth="yes"/>
      <point x="647" y="131"/>
      <point x="559" y="44"/>
      <point x="417" y="44" type="curve" smooth="yes"/>
      <point x="281" y="44"/>
      <point x="184" y="148"/>
      <point x="184" y="294" type="curve" smooth="yes"/>
      <point x="184" y="511" type="line" smooth="yes"/>
      <point x="184" y="658"/>
      <point x="301" y="757"/>
      <point x="442" y="757" type="curve" smooth="yes"/>
      <point x="517" y="757"/>
      <point x="569" y="748"/>
      <point x="624" y="726" type="curve"/>
      <point x="640" y="778" type="line"/>
      <point x="583" y="804"/>
      <point x="508" y="812"/>
    </contour>
  </outline>
</glyph>
